<?xml version="1.0" standalone="no"?>
<!DOCTYPE svg PUBLIC "-//W3C//DTD SVG 20010904//EN"
 "http://www.w3.org/TR/2001/REC-SVG-20010904/DTD/svg10.dtd">
<svg version="1.0" xmlns="http://www.w3.org/2000/svg"
 width="512.000000pt" height="512.000000pt" viewBox="0 0 512.000000 512.000000"
 preserveAspectRatio="xMidYMid meet">

<g transform="translate(0.000000,512.000000) scale(0.100000,-0.100000)"
fill="#000000" stroke="none">
<path d="M1735 4456 c-65 -23 -97 -47 -125 -98 -9 -15 -6 -15 27 -6 41 11 115
3 153 -17 33 -18 83 -72 106 -115 29 -53 26 -247 -4 -353 -58 -205 -166 -373
-276 -429 -55 -28 -137 -28 -192 0 -39 20 -90 70 -126 122 -14 21 -17 22 -17
7 -1 -36 50 -171 85 -223 55 -83 112 -122 234 -163 97 -32 93 -24 71 -127 -11
-49 -22 -118 -26 -154 l-6 -65 49 -48 49 -48 6 108 c7 110 30 240 46 256 5 5
31 2 62 -7 71 -21 144 -20 220 4 251 77 464 395 482 720 l2 45 87 22 c134 33
335 47 616 40 244 -5 314 -12 443 -43 l65 -15 12 -94 c56 -443 394 -771 701
-679 29 8 55 13 58 11 11 -12 34 -121 44 -217 18 -162 -4 -420 -51 -608 -25
-99 -95 -240 -157 -317 -69 -85 -171 -167 -267 -214 -91 -45 -227 -80 -416
-106 -183 -25 -180 -24 -191 -49 -8 -17 -8 -30 1 -46 12 -22 16 -23 99 -16 47
3 136 15 196 26 l110 20 78 -83 c232 -246 348 -505 317 -704 -18 -110 -81
-207 -163 -250 -96 -50 -454 12 -704 122 l-55 25 6 -28 c4 -15 11 -43 17 -64
l9 -36 138 -45 c192 -63 324 -89 457 -91 101 -1 115 1 165 26 117 58 209 191
231 335 32 215 -86 486 -336 769 l-45 51 60 23 c230 86 436 303 522 550 52
151 82 357 82 570 1 135 -4 186 -23 278 -13 63 -19 117 -15 122 5 4 41 18 79
30 94 30 142 59 197 118 54 57 78 101 107 196 30 97 26 107 -17 45 -92 -132
-233 -162 -348 -74 -79 60 -181 234 -225 380 -25 85 -37 280 -20 341 16 58 64
120 113 146 33 16 61 22 115 22 61 0 70 3 63 16 -31 57 -126 102 -230 108 -70
4 -86 1 -250 -53 -96 -32 -195 -68 -220 -80 -61 -31 -120 -90 -162 -161 -30
-51 -44 -64 -133 -117 l-100 -59 -125 11 c-159 14 -493 14 -653 0 l-124 -11
-104 61 c-92 53 -108 66 -127 106 -28 57 -94 130 -146 160 -23 13 -122 51
-221 84 -210 71 -263 76 -380 37z"/>
<path d="M2453 2890 c-84 -17 -163 -75 -163 -119 0 -58 48 -67 111 -21 72 52
161 49 235 -7 85 -64 149 19 67 86 -62 51 -170 78 -250 61z"/>
<path d="M3753 2890 c-58 -12 -116 -44 -147 -80 -31 -37 -31 -39 -10 -68 20
-29 59 -28 95 3 30 25 86 45 127 45 29 0 86 -24 119 -50 34 -27 79 -26 93 1
18 33 3 66 -43 97 -69 48 -158 67 -234 52z"/>
<path d="M119 2669 c-98 -178 -112 -222 -112 -334 0 -133 45 -239 139 -329
186 -179 492 -166 660 27 21 24 73 107 115 183 l76 139 -29 3 c-22 3 -40 19
-81 75 -137 185 -311 282 -552 307 -123 13 -123 14 -134 43 -6 17 -21 -3 -82
-114z"/>
<path d="M3059 2761 c-20 -16 -22 -23 -14 -47 8 -21 18 -30 38 -32 23 -3 27
-8 27 -36 0 -58 -62 -100 -118 -80 -15 5 -38 27 -52 48 -35 50 -51 59 -78 40
-57 -40 7 -152 104 -184 51 -17 118 -7 162 24 32 22 38 24 52 11 26 -23 87
-45 127 -45 58 0 121 36 154 88 35 56 37 86 5 107 -31 21 -53 10 -76 -36 -23
-44 -46 -59 -89 -59 -41 0 -80 37 -88 83 -5 35 -4 37 20 37 15 0 32 9 41 22
20 29 20 34 -4 58 -29 29 -176 29 -211 1z"/>
<path d="M1701 2254 c11 -43 38 -117 60 -162 36 -78 116 -203 139 -217 6 -4
33 1 60 10 l50 17 -50 55 c-27 31 -70 98 -96 149 -35 69 -64 110 -115 160
l-68 67 20 -79z"/>
<path d="M2470 1907 c-74 -17 -152 -61 -201 -114 -21 -24 -43 -43 -47 -43 -5
0 -30 14 -56 30 l-48 31 -54 -18 c-30 -9 -54 -19 -54 -22 0 -8 118 -87 151
-101 24 -11 25 -15 21 -70 -2 -32 1 -74 7 -93 11 -32 9 -41 -18 -95 -66 -131
-99 -345 -72 -473 66 -314 344 -364 536 -94 77 107 145 287 145 383 0 26 10
45 44 84 59 65 86 138 86 232 0 40 -7 93 -15 117 -61 175 -251 284 -425 246z
m177 -113 c52 -19 119 -82 144 -137 25 -56 25 -167 0 -222 -10 -22 -33 -53
-50 -70 -26 -24 -41 -30 -95 -33 -35 -2 -81 1 -103 8 -108 35 -216 109 -249
172 -31 60 -13 145 46 212 75 84 191 111 307 70z m-357 -429 c47 -57 239 -135
332 -135 l60 0 -6 -37 c-52 -293 -270 -507 -399 -393 -99 86 -115 316 -37 523
23 60 30 66 50 42z"/>
<path d="M2985 1315 c-139 -52 -197 -203 -131 -339 51 -103 177 -216 349 -311
l68 -37 -6 38 c-3 22 -8 49 -10 60 -3 14 -40 46 -104 88 -98 65 -178 142 -208
200 -22 42 -20 122 4 155 39 52 76 63 205 58 l116 -4 7 44 c4 25 4 48 0 51 -3
3 -61 7 -128 9 -89 2 -133 -1 -162 -12z"/>
<path d="M3397 1274 c-4 -4 -7 -26 -7 -50 0 -37 3 -43 28 -49 60 -15 224 -81
351 -141 128 -61 135 -63 158 -48 18 11 23 23 21 42 -3 23 -18 35 -118 85
-118 59 -346 153 -397 163 -15 3 -31 2 -36 -2z"/>
</g>
</svg>
